<?xml version="1.0" standalone="no"?>
<!DOCTYPE svg PUBLIC "-//W3C//DTD SVG 20010904//EN"
 "http://www.w3.org/TR/2001/REC-SVG-20010904/DTD/svg10.dtd">
<svg version="1.0" xmlns="http://www.w3.org/2000/svg"
 width="500.000000pt" height="500.000000pt" viewBox="0 0 500.000000 500.000000"
 preserveAspectRatio="xMidYMid meet">

<g transform="translate(0.000000,500.000000) scale(0.100000,-0.100000)"
fill="#000000" stroke="none">
<path d="M2902 2230 c-130 -80 -18 -275 118 -205 42 21 60 53 60 103 0 38 -6
50 -39 83 -45 46 -86 51 -139 19z m118 -54 c0 -3 3 -11 6 -20 4 -10 1 -16 -10
-16 -19 0 -36 -30 -36 -65 0 -24 -3 -27 -27 -21 -35 8 -73 50 -73 80 0 52 62
85 113 59 15 -7 27 -15 27 -17z"/>
</g>
</svg>
