<?xml version="1.0" encoding="UTF-8"?>
<!DOCTYPE svg PUBLIC "-//W3C//DTD SVG 1.1//EN" "http://www.w3.org/Graphics/SVG/1.1/DTD/svg11.dtd">
<!-- Creator: CorelDRAW 2021 (64-Bit) -->
<svg xmlns="http://www.w3.org/2000/svg" xml:space="preserve" width="499.999mm" height="499.999mm" version="1.1" style="shape-rendering:geometricPrecision; text-rendering:geometricPrecision; image-rendering:optimizeQuality; fill-rule:evenodd; clip-rule:evenodd"
viewBox="0 0 49999.9 49999.9"
 xmlns:xlink="http://www.w3.org/1999/xlink"
 xmlns:xodm="http://www.corel.com/coreldraw/odm/2003">
 <defs>
  <style type="text/css">
   <![CDATA[
    .str0 {stroke:#373435;stroke-width:7.62;stroke-miterlimit:22.9256}
    .fil3 {fill:currentColor}
    .fil5 {fill:#4B4B4D}
    .fil1 {fill:#ED3237}
    .fil6 {fill:#174B75}
    .fil0 {fill:currentColor;fill-rule:nonzero}
    .fil4 {fill:black;fill-rule:nonzero}
    .fil7 {fill:#174B75;fill-rule:nonzero}
    .fil2 {fill:currentColor;fill-rule:nonzero}
   ]]>
  </style>
    <clipPath id="id0">
     <rect x="-104295.59" y="22660.82" width="49999.94" height="49999.94"/>
    </clipPath>
    <clipPath id="id1">
     <rect x="-104295.59" y="72660.76" width="50000" height="50000"/>
    </clipPath>
 </defs>
 <g id="Слой_x0020_1">
  <metadata id="CorelCorpID_0Corel-Layer"/>
  <path class="fil0" d="M-170364.32 44144.41l4943.45 0c829.68,0 1480.41,233.84 1952.17,699.51 469.75,467.72 705.64,1116.4 705.64,1946.08l0 3164.13c0,825.62 -235.89,1476.34 -705.64,1948.12 -471.76,473.81 -1122.49,709.69 -1952.17,709.69l-4943.45 0 0 -8467.53zm1805.75 1769.15l0 4917.02 2964.86 0c337.56,0 593.79,-85.4 766.63,-256.22 172.85,-170.81 258.26,-422.96 258.26,-756.46l0 -2879.47c0,-337.55 -87.44,-593.75 -262.32,-766.62 -174.88,-172.84 -429.07,-258.25 -762.57,-258.25l-2964.86 0z"/>
  <path class="fil0" d="M-172918.69 45535.33l2342.59 7076.61 -1913.52 0 -2120.96 -6560.1c-32.53,-101.68 -75.23,-176.91 -128.11,-225.72 -52.87,-46.77 -122.01,-71.17 -205.39,-71.17 -79.31,0 -144.37,22.36 -193.18,69.14 -50.84,44.73 -91.52,119.98 -122.01,223.68l-2122.98 6564.17 -1917.6 0 2328.37 -7076.61c183.02,-544.99 435.18,-941.52 754.43,-1189.6 319.25,-248.09 744.26,-372.13 1272.97,-372.13 528.72,0 959.82,130.15 1295.35,390.43 335.52,260.29 579.54,650.73 730.04,1171.3z"/>
  <path class="fil0" d="M-184520.27 44144.41l4955.67 0 0 1769.15 -4819.43 0c-368.07,0 -624.29,71.17 -764.6,211.48 -140.31,140.31 -211.48,400.63 -211.48,776.79l0 536.86 5795.51 0 0 1781.35 -5795.51 0 0 632.41c0,374.17 70.16,629.38 209.46,768.69 139.29,139.28 394.5,209.44 766.62,209.44l4819.43 0 0 1781.36 -4955.67 0c-923.81,0 -1535.8,-302.49 -1939.95,-709.69 -405.16,-408.19 -705.64,-990.34 -705.64,-1948.12l0 -3164.13c0,-907.11 251.39,-1490.39 655.02,-1894.02 403.62,-403.64 1032.81,-751.57 1990.57,-751.57z"/>
  <circle class="fil1" cx="-174937.98" cy="51376.37" r="1235.57"/>
  <path class="fil2" d="M-195184.3 44144.44l4672.97 0c882.55,0 1533.3,152.52 1954.22,455.53 420.92,304.99 632.39,772.72 632.39,1409.18l0 675.14c0,488.06 -91.48,878.49 -274.49,1171.28 -183.02,290.81 -461.63,494.16 -839.86,610.09 233.89,91.48 429.1,248.07 583.6,467.68 154.56,219.6 266.42,494.15 333.51,823.59l612.11 2855.01 -1905.42 0 -416.85 -2293.77c-50.83,-313.17 -156.59,-565.31 -319.28,-754.42 -160.65,-189.17 -345.7,-282.68 -555.14,-282.68l-1817.96 0 0 -1695.93 1935.92 0c274.5,0 486.03,-52.86 634.43,-158.62 148.46,-105.76 223.72,-256.2 223.72,-449.38l0 -455.53c0,-193.18 -75.26,-343.67 -223.72,-449.38 -148.4,-105.77 -359.93,-158.62 -634.43,-158.62l-2789.96 0 0 6698.33 -1805.76 0 0 -8467.5z"/>
  <rect class="fil3" x="-154295.54" y="22660.76" width="49999.94" height="50000"/>
  <path class="fil4" d="M-120095.28 44144.41l4943.45 0c829.68,0 1480.41,233.84 1952.17,699.51 469.75,467.72 705.64,1116.4 705.64,1946.08l0 3164.13c0,825.62 -235.89,1476.34 -705.64,1948.12 -471.76,473.81 -1122.49,709.69 -1952.17,709.69l-4943.45 0 0 -8467.53zm1805.75 1769.15l0 4917.02 2964.86 0c337.56,0 593.79,-85.4 766.63,-256.22 172.85,-170.81 258.26,-422.96 258.26,-756.46l0 -2879.47c0,-337.55 -87.44,-593.75 -262.32,-766.62 -174.88,-172.84 -429.07,-258.25 -762.57,-258.25l-2964.86 0z"/>
  <path class="fil4" d="M-122649.65 45535.33l2342.59 7076.61 -1913.52 0 -2120.96 -6560.1c-32.53,-101.68 -75.23,-176.91 -128.11,-225.72 -52.87,-46.77 -122.01,-71.17 -205.39,-71.17 -79.31,0 -144.37,22.36 -193.18,69.14 -50.84,44.73 -91.52,119.98 -122.01,223.68l-2122.98 6564.17 -1917.6 0 2328.37 -7076.61c183.02,-544.99 435.18,-941.52 754.43,-1189.6 319.25,-248.09 744.26,-372.13 1272.97,-372.13 528.72,0 959.82,130.15 1295.35,390.43 335.52,260.29 579.54,650.73 730.04,1171.3z"/>
  <path class="fil4" d="M-134251.23 44144.41l4955.67 0 0 1769.15 -4819.43 0c-368.07,0 -624.29,71.17 -764.6,211.48 -140.31,140.31 -211.48,400.63 -211.48,776.79l0 536.86 5795.51 0 0 1781.35 -5795.51 0 0 632.41c0,374.17 70.16,629.38 209.46,768.69 139.29,139.28 394.5,209.44 766.62,209.44l4819.43 0 0 1781.36 -4955.67 0c-923.81,0 -1535.8,-302.49 -1939.95,-709.69 -405.16,-408.19 -705.64,-990.34 -705.64,-1948.12l0 -3164.13c0,-907.11 251.39,-1490.39 655.02,-1894.02 403.62,-403.64 1032.81,-751.57 1990.57,-751.57z"/>
  <circle class="fil1" cx="-124668.94" cy="51376.37" r="1235.57"/>
  <path class="fil4" d="M-144915.26 44144.44l4672.97 0c882.55,0 1533.3,152.52 1954.22,455.53 420.92,304.99 632.39,772.72 632.39,1409.18l0 675.14c0,488.06 -91.48,878.49 -274.49,1171.28 -183.02,290.81 -461.63,494.16 -839.86,610.09 233.89,91.48 429.1,248.07 583.6,467.68 154.56,219.6 266.42,494.15 333.51,823.59l612.11 2855.01 -1905.42 0 -416.85 -2293.77c-50.83,-313.17 -156.59,-565.31 -319.28,-754.42 -160.65,-189.17 -345.7,-282.68 -555.14,-282.68l-1817.96 0 0 -1695.93 1935.92 0c274.5,0 486.03,-52.86 634.43,-158.62 148.46,-105.76 223.72,-256.2 223.72,-449.38l0 -455.53c0,-193.18 -75.26,-343.67 -223.72,-449.38 -148.4,-105.77 -359.93,-158.62 -634.43,-158.62l-2789.96 0 0 6698.33 -1805.76 0 0 -8467.5z"/>
  <g id="_2223125479984">
   <g style="clip-path:url(#id0)">
    <image x="-104295.59" y="22660.82" width="49999.94" height="49999.94" xlink:href="Read_Images\Read_ImgID1.png"/>
   </g>
   <path class="fil0" d="M-70095.34 44144.41l4943.45 0c829.68,0 1480.41,233.84 1952.17,699.51 469.75,467.72 705.64,1116.4 705.64,1946.08l0 3164.13c0,825.62 -235.89,1476.34 -705.64,1948.12 -471.76,473.81 -1122.49,709.69 -1952.17,709.69l-4943.45 0 0 -8467.53zm1805.75 1769.15l0 4917.02 2964.86 0c337.56,0 593.79,-85.4 766.63,-256.22 172.85,-170.81 258.26,-422.96 258.26,-756.46l0 -2879.47c0,-337.55 -87.44,-593.75 -262.32,-766.62 -174.88,-172.84 -429.07,-258.25 -762.57,-258.25l-2964.86 0z"/>
   <path class="fil0" d="M-72649.71 45535.33l2342.59 7076.61 -1913.52 0 -2120.96 -6560.1c-32.53,-101.68 -75.23,-176.91 -128.11,-225.72 -52.87,-46.77 -122.01,-71.17 -205.39,-71.17 -79.31,0 -144.37,22.36 -193.18,69.14 -50.84,44.73 -91.52,119.98 -122.01,223.68l-2122.98 6564.17 -1917.6 0 2328.37 -7076.61c183.02,-544.99 435.18,-941.52 754.43,-1189.6 319.25,-248.09 744.26,-372.13 1272.97,-372.13 528.72,0 959.82,130.15 1295.35,390.43 335.52,260.29 579.54,650.73 730.04,1171.3z"/>
   <path class="fil0" d="M-84251.29 44144.41l4955.67 0 0 1769.15 -4819.43 0c-368.07,0 -624.29,71.17 -764.6,211.48 -140.31,140.31 -211.48,400.63 -211.48,776.79l0 536.86 5795.51 0 0 1781.35 -5795.51 0 0 632.41c0,374.17 70.16,629.38 209.46,768.69 139.29,139.28 394.5,209.44 766.62,209.44l4819.43 0 0 1781.36 -4955.67 0c-923.81,0 -1535.8,-302.49 -1939.95,-709.69 -405.16,-408.19 -705.64,-990.34 -705.64,-1948.12l0 -3164.13c0,-907.11 251.39,-1490.39 655.02,-1894.02 403.62,-403.64 1032.81,-751.57 1990.57,-751.57z"/>
   <circle class="fil1" cx="-74669" cy="51376.37" r="1235.57"/>
   <path class="fil2" d="M-94915.32 44144.44l4672.97 0c882.55,0 1533.3,152.52 1954.22,455.53 420.92,304.99 632.39,772.72 632.39,1409.18l0 675.14c0,488.06 -91.48,878.49 -274.49,1171.28 -183.02,290.81 -461.63,494.16 -839.86,610.09 233.89,91.48 429.1,248.07 583.6,467.68 154.56,219.6 266.42,494.15 333.51,823.59l612.11 2855.01 -1905.42 0 -416.85 -2293.77c-50.83,-313.17 -156.59,-565.31 -319.28,-754.42 -160.65,-189.17 -345.7,-282.68 -555.14,-282.68l-1817.96 0 0 -1695.93 1935.92 0c274.5,0 486.03,-52.86 634.43,-158.62 148.46,-105.76 223.72,-256.2 223.72,-449.38l0 -455.53c0,-193.18 -75.26,-343.67 -223.72,-449.38 -148.4,-105.77 -359.93,-158.62 -634.43,-158.62l-2789.96 0 0 6698.33 -1805.76 0 0 -8467.5z"/>
  </g>
  <g id="_2223125478688">
   <rect class="fil5" x="-204295.48" y="72660.76" width="49999.94" height="50000"/>
   <path class="fil0" d="M-170364.32 93512.4l4943.45 0c829.68,0 1480.41,233.84 1952.17,699.51 469.75,467.72 705.64,1116.4 705.64,1946.08l0 3164.13c0,825.62 -235.89,1476.34 -705.64,1948.12 -471.76,473.81 -1122.49,709.69 -1952.17,709.69l-4943.45 0 0 -8467.53zm1805.75 1769.15l0 4917.02 2964.86 0c337.56,0 593.79,-85.4 766.63,-256.22 172.85,-170.81 258.26,-422.96 258.26,-756.46l0 -2879.47c0,-337.55 -87.44,-593.75 -262.32,-766.62 -174.88,-172.84 -429.07,-258.25 -762.57,-258.25l-2964.86 0z"/>
   <path class="fil0" d="M-172918.69 94903.32l2342.59 7076.61 -1913.52 0 -2120.96 -6560.1c-32.53,-101.68 -75.23,-176.91 -128.11,-225.72 -52.87,-46.77 -122.01,-71.17 -205.39,-71.17 -79.31,0 -144.37,22.36 -193.18,69.14 -50.84,44.73 -91.52,119.98 -122.01,223.68l-2122.98 6564.17 -1917.6 0 2328.37 -7076.61c183.02,-544.99 435.18,-941.52 754.43,-1189.6 319.25,-248.09 744.26,-372.13 1272.97,-372.13 528.72,0 959.82,130.15 1295.35,390.43 335.52,260.29 579.54,650.73 730.04,1171.3z"/>
   <path class="fil0" d="M-184520.27 93512.4l4955.67 0 0 1769.15 -4819.43 0c-368.07,0 -624.29,71.17 -764.6,211.48 -140.31,140.31 -211.48,400.63 -211.48,776.79l0 536.86 5795.51 0 0 1781.35 -5795.51 0 0 632.41c0,374.17 70.16,629.38 209.46,768.69 139.29,139.28 394.5,209.44 766.62,209.44l4819.43 0 0 1781.36 -4955.67 0c-923.81,0 -1535.8,-302.49 -1939.95,-709.69 -405.16,-408.19 -705.64,-990.34 -705.64,-1948.12l0 -3164.13c0,-907.11 251.39,-1490.39 655.02,-1894.02 403.62,-403.64 1032.81,-751.57 1990.57,-751.57z"/>
   <circle class="fil1" cx="-174937.98" cy="100744.36" r="1235.57"/>
   <path class="fil2" d="M-195184.3 93512.43l4672.97 0c882.55,0 1533.3,152.52 1954.22,455.53 420.92,304.99 632.39,772.72 632.39,1409.18l0 675.14c0,488.06 -91.48,878.49 -274.49,1171.28 -183.02,290.81 -461.63,494.16 -839.86,610.09 233.89,91.48 429.1,248.07 583.6,467.68 154.56,219.6 266.42,494.15 333.51,823.59l612.11 2855.01 -1905.42 0 -416.85 -2293.77c-50.83,-313.17 -156.59,-565.31 -319.28,-754.42 -160.65,-189.17 -345.7,-282.68 -555.14,-282.68l-1817.96 0 0 -1695.93 1935.92 0c274.5,0 486.03,-52.86 634.43,-158.62 148.46,-105.76 223.72,-256.2 223.72,-449.38l0 -455.53c0,-193.18 -75.26,-343.67 -223.72,-449.38 -148.4,-105.77 -359.93,-158.62 -634.43,-158.62l-2789.96 0 0 6698.33 -1805.76 0 0 -8467.5z"/>
  </g>
  <g id="_2223125476384">
   <rect class="fil6" x="-154295.54" y="72660.76" width="49999.94" height="50000"/>
   <path class="fil2" d="M-120095.28 93512.4l4943.45 0c829.68,0 1480.41,233.84 1952.17,699.51 469.75,467.72 705.64,1116.4 705.64,1946.08l0 3164.13c0,825.62 -235.89,1476.34 -705.64,1948.12 -471.76,473.81 -1122.49,709.69 -1952.17,709.69l-4943.45 0 0 -8467.53zm1805.75 1769.15l0 4917.02 2964.86 0c337.56,0 593.79,-85.4 766.63,-256.22 172.85,-170.81 258.26,-422.96 258.26,-756.46l0 -2879.47c0,-337.55 -87.44,-593.75 -262.32,-766.62 -174.88,-172.84 -429.07,-258.25 -762.57,-258.25l-2964.86 0z"/>
   <path class="fil2" d="M-122649.65 94903.32l2342.59 7076.61 -1913.52 0 -2120.96 -6560.1c-32.53,-101.68 -75.23,-176.91 -128.11,-225.72 -52.87,-46.77 -122.01,-71.17 -205.39,-71.17 -79.31,0 -144.37,22.36 -193.18,69.14 -50.84,44.73 -91.52,119.98 -122.01,223.68l-2122.98 6564.17 -1917.6 0 2328.37 -7076.61c183.02,-544.99 435.18,-941.52 754.43,-1189.6 319.25,-248.09 744.26,-372.13 1272.97,-372.13 528.72,0 959.82,130.15 1295.35,390.43 335.52,260.29 579.54,650.73 730.04,1171.3z"/>
   <path class="fil2" d="M-134251.23 93512.4l4955.67 0 0 1769.15 -4819.43 0c-368.07,0 -624.29,71.17 -764.6,211.48 -140.31,140.31 -211.48,400.63 -211.48,776.79l0 536.86 5795.51 0 0 1781.35 -5795.51 0 0 632.41c0,374.17 70.16,629.38 209.46,768.69 139.29,139.28 394.5,209.44 766.62,209.44l4819.43 0 0 1781.36 -4955.67 0c-923.81,0 -1535.8,-302.49 -1939.95,-709.69 -405.16,-408.19 -705.64,-990.34 -705.64,-1948.12l0 -3164.13c0,-907.11 251.39,-1490.39 655.02,-1894.02 403.62,-403.64 1032.81,-751.57 1990.57,-751.57z"/>
   <circle class="fil1" cx="-124668.94" cy="100744.36" r="1235.57"/>
   <path class="fil2" d="M-144915.26 93512.43l4672.97 0c882.55,0 1533.3,152.52 1954.22,455.53 420.92,304.99 632.39,772.72 632.39,1409.18l0 675.14c0,488.06 -91.48,878.49 -274.49,1171.28 -183.02,290.81 -461.63,494.16 -839.86,610.09 233.89,91.48 429.1,248.07 583.6,467.68 154.56,219.6 266.42,494.15 333.51,823.59l612.11 2855.01 -1905.42 0 -416.85 -2293.77c-50.83,-313.17 -156.59,-565.31 -319.28,-754.42 -160.65,-189.17 -345.7,-282.68 -555.14,-282.68l-1817.96 0 0 -1695.93 1935.92 0c274.5,0 486.03,-52.86 634.43,-158.62 148.46,-105.76 223.72,-256.2 223.72,-449.38l0 -455.53c0,-193.18 -75.26,-343.67 -223.72,-449.38 -148.4,-105.77 -359.93,-158.62 -634.43,-158.62l-2789.96 0 0 6698.33 -1805.76 0 0 -8467.5z"/>
  </g>
  <g id="_2223125474464">
   <g style="clip-path:url(#id1)">
    <image x="-104295.59" y="72660.76" width="50000" height="50000" xlink:href="Read_Images\Read_ImgID2.png"/>
   </g>
   <path class="fil7" d="M-70095.34 93512.4l4943.45 0c829.68,0 1480.41,233.84 1952.17,699.51 469.75,467.72 705.64,1116.4 705.64,1946.08l0 3164.13c0,825.62 -235.89,1476.34 -705.64,1948.12 -471.76,473.81 -1122.49,709.69 -1952.17,709.69l-4943.45 0 0 -8467.53zm1805.75 1769.15l0 4917.02 2964.86 0c337.56,0 593.79,-85.4 766.63,-256.22 172.85,-170.81 258.26,-422.96 258.26,-756.46l0 -2879.47c0,-337.55 -87.44,-593.75 -262.32,-766.62 -174.88,-172.84 -429.07,-258.25 -762.57,-258.25l-2964.86 0z"/>
   <path class="fil7" d="M-72649.71 94903.32l2342.59 7076.61 -1913.52 0 -2120.96 -6560.1c-32.53,-101.68 -75.23,-176.91 -128.11,-225.72 -52.87,-46.77 -122.01,-71.17 -205.39,-71.17 -79.31,0 -144.37,22.36 -193.18,69.14 -50.84,44.73 -91.52,119.98 -122.01,223.68l-2122.98 6564.17 -1917.6 0 2328.37 -7076.61c183.02,-544.99 435.18,-941.52 754.43,-1189.6 319.25,-248.09 744.26,-372.13 1272.97,-372.13 528.72,0 959.82,130.15 1295.35,390.43 335.52,260.29 579.54,650.73 730.04,1171.3z"/>
   <path class="fil7" d="M-84251.29 93512.4l4955.67 0 0 1769.15 -4819.43 0c-368.07,0 -624.29,71.17 -764.6,211.48 -140.31,140.31 -211.48,400.63 -211.48,776.79l0 536.86 5795.51 0 0 1781.35 -5795.51 0 0 632.41c0,374.17 70.16,629.38 209.46,768.69 139.29,139.28 394.5,209.44 766.62,209.44l4819.43 0 0 1781.36 -4955.67 0c-923.81,0 -1535.8,-302.49 -1939.95,-709.69 -405.16,-408.19 -705.64,-990.34 -705.64,-1948.12l0 -3164.13c0,-907.11 251.39,-1490.39 655.02,-1894.02 403.62,-403.64 1032.81,-751.57 1990.57,-751.57z"/>
   <circle class="fil1" cx="-74669" cy="100744.36" r="1235.57"/>
   <path class="fil7" d="M-94915.32 93512.43l4672.97 0c882.55,0 1533.3,152.52 1954.22,455.53 420.92,304.99 632.39,772.72 632.39,1409.18l0 675.14c0,488.06 -91.48,878.49 -274.49,1171.28 -183.02,290.81 -461.63,494.16 -839.86,610.09 233.89,91.48 429.1,248.07 583.6,467.68 154.56,219.6 266.42,494.15 333.51,823.59l612.11 2855.01 -1905.42 0 -416.85 -2293.77c-50.83,-313.17 -156.59,-565.31 -319.28,-754.42 -160.65,-189.17 -345.7,-282.68 -555.14,-282.68l-1817.96 0 0 -1695.93 1935.92 0c274.5,0 486.03,-52.86 634.43,-158.62 148.46,-105.76 223.72,-256.2 223.72,-449.38l0 -455.53c0,-193.18 -75.26,-343.67 -223.72,-449.38 -148.4,-105.77 -359.93,-158.62 -634.43,-158.62l-2789.96 0 0 6698.33 -1805.76 0 0 -8467.5z"/>
  </g>
  <path class="fil0 str0" d="M-179960.01 8120.04l2813.2 0 0 1406.6 -2759.67 0c-201.21,0 -335.96,33.23 -404.26,97.83 -68.3,64.61 -103.37,195.67 -103.37,393.19l0 395.03 3267.3 0 0 1417.68 -3267.3 0 0 1982.53 -1428.75 0 0 -3843.24c0,-657.15 145.82,-1127.86 437.48,-1417.67 293.51,-287.97 775.29,-431.95 1445.37,-431.95zm4904.65 2026.83l0 1639.19c0,227.05 62.76,404.26 188.28,529.79 127.37,127.37 302.74,190.13 529.79,190.13l1255.23 0c227.05,0 402.42,-62.76 529.79,-190.13 125.52,-125.53 188.28,-302.74 188.28,-529.79l0 -1639.19c0,-227.05 -62.76,-404.26 -188.28,-529.78 -127.37,-127.37 -302.74,-190.13 -529.79,-190.13l-1255.23 0c-227.05,0 -402.42,62.76 -529.79,190.13 -125.52,125.52 -188.28,302.73 -188.28,529.78zm487.32 -2126.51l1716.72 0c611.01,0 1083.57,167.98 1421.37,505.78 337.81,337.81 505.79,810.37 505.79,1419.53l0 2041.6c0,609.16 -167.98,1081.72 -505.79,1419.52 -337.8,337.81 -810.36,505.79 -1421.37,505.79l-1716.72 0c-611,0 -1083.56,-167.98 -1421.37,-505.79 -337.8,-337.8 -505.78,-810.36 -505.78,-1419.52l0 -2041.6c0,-609.16 167.98,-1081.72 505.78,-1419.53 337.81,-337.8 810.37,-505.78 1421.37,-505.78zm8105.51 1460.13l515.01 2495.7c38.77,186.44 94.14,323.04 166.14,406.11 73.83,83.07 171.67,123.68 299.04,123.68 107.06,0 193.82,-42.46 256.58,-129.22 62.76,-86.76 94.15,-206.74 94.15,-358.11l0 -3898.61 1428.75 0 0 4186.58c0,481.79 -162.44,871.28 -487.33,1164.78 -324.88,293.51 -754.99,441.18 -1292.15,441.18 -491.02,0 -886.05,-121.83 -1185.09,-367.34 -299.04,-245.51 -500.25,-611.01 -599.93,-1092.79l-509.48 -2479.09c-42.46,-193.83 -99.68,-334.12 -171.67,-419.03 -71.99,-84.92 -169.83,-127.37 -293.51,-127.37 -107.06,0 -193.82,42.45 -258.43,129.21 -64.6,86.76 -97.83,206.75 -97.83,358.12l0 3898.61 -1428.75 0 0 -4186.58c0,-481.79 162.44,-871.28 489.17,-1164.79 326.73,-293.5 758.68,-441.17 1295.84,-441.17 491.02,0 886.05,121.83 1185.1,367.34 299.04,245.51 498.4,611 594.39,1092.79zm3378.06 -1360.45l4817.89 0 0 1406.6 -1694.57 0 0 4286.26 -1428.75 0 0 -4286.26 -1694.57 0 0 -1406.6zm5846.07 1847.78l0 -815.91c0,-208.59 49.84,-365.49 151.37,-468.86 101.53,-101.53 252.89,-153.22 454.1,-153.22l821.44 0c204.9,0 359.96,51.69 465.18,156.91 105.21,105.22 156.9,260.28 156.9,465.17l0 815.91c0,204.9 -51.69,358.11 -156.9,459.64 -105.22,101.52 -260.28,151.36 -465.18,151.36l-821.44 0c-201.21,0 -352.57,-49.84 -454.1,-151.36 -101.53,-101.53 -151.37,-254.74 -151.37,-459.64zm0 3223l0 -815.9c0,-204.9 49.84,-358.11 151.37,-459.64 101.53,-101.53 252.89,-151.37 454.1,-151.37l821.44 0c204.9,0 359.96,49.84 465.18,151.37 105.21,101.53 156.9,254.74 156.9,459.64l0 815.9c0,204.9 -51.69,359.96 -156.9,465.18 -105.22,105.21 -260.28,156.9 -465.18,156.9l-821.44 0c-201.21,0 -352.57,-51.69 -454.1,-153.21 -101.53,-103.37 -151.37,-260.28 -151.37,-468.87zm17924.02 -7064.39l3987.22 0 0 1605.96 -4018.6 0c-269.51,0 -474.41,59.07 -612.85,175.36 -138.45,118.14 -208.59,291.66 -208.59,522.4 0,227.05 70.14,398.73 208.59,513.17 138.44,116.3 343.34,173.52 612.85,173.52l1722.26 0c830.67,0 1476.74,206.75 1941.92,622.08 465.18,415.34 697.76,989.42 697.76,1725.95 0,736.53 -232.58,1310.61 -697.76,1725.95 -465.18,415.34 -1111.25,622.08 -1941.92,622.08l-4027.83 0 0 -1617.04 4066.59 0c313.81,0 550.09,-60.91 710.69,-184.59 160.59,-121.83 239.97,-304.58 239.97,-546.4 0,-245.51 -79.38,-428.26 -239.97,-550.09 -160.6,-119.98 -396.88,-180.9 -710.69,-180.9l-1729.64 0c-769.76,0 -1378.91,-206.74 -1823.78,-618.39 -444.87,-413.49 -668.23,-974.65 -668.23,-1685.34 0,-714.37 223.36,-1275.54 668.23,-1687.18 444.87,-411.64 1054.02,-616.54 1823.78,-616.54zm6479.23 3400.21l0 1030.03 1661.34 0c171.67,0 289.81,-22.15 350.73,-68.3 60.91,-44.3 92.3,-129.21 92.3,-254.74l0 -372.88c0,-125.52 -31.39,-212.28 -94.15,-262.12 -62.76,-47.99 -179.05,-71.99 -348.88,-71.99l-1661.34 0zm-1428.75 -1406.6l3224.84 0c572.24,0 1006.04,121.83 1303.23,367.34 297.2,245.51 444.87,603.62 444.87,1076.18l0 959.88c0,472.56 -147.67,832.52 -444.87,1079.88 -297.19,247.35 -730.99,371.03 -1303.23,371.03l-1796.09 0 0 1838.55 -1428.75 0 0 -5692.86zm9360.73 1009.72l1561.66 4683.14 -1508.12 0 -1281.08 -4110.9c-29.54,-92.29 -66.46,-162.44 -114.45,-206.74 -46.15,-46.15 -105.22,-68.3 -177.21,-68.3 -70.15,0 -125.52,22.15 -167.98,64.61 -44.3,44.3 -79.38,114.44 -108.91,210.43l-1281.08 4110.9 -1508.13 0 1550.59 -4683.14c116.29,-358.11 304.58,-631.31 568.54,-823.28 262.13,-190.14 577.78,-286.12 945.12,-286.12 372.88,0 684.85,92.29 939.58,278.73 252.9,186.44 446.72,463.33 581.47,830.67zm3488.82 -1009.72l2536.32 0 0 1406.6 -2303.73 0c-227.05,0 -404.26,64.61 -529.78,191.98 -127.37,127.37 -190.13,304.58 -190.13,531.63l0 1437.98c0,227.05 62.76,402.41 190.13,529.78 125.52,125.53 302.73,188.29 529.78,188.29l2303.73 0 0 1406.6 -2536.32 0c-611,0 -1083.56,-167.98 -1421.37,-505.79 -337.8,-337.8 -505.78,-810.36 -505.78,-1419.52l0 -1836.71c0,-609.15 167.98,-1083.56 505.78,-1423.21 337.81,-337.81 810.37,-507.63 1421.37,-507.63zm5185.23 0l2813.21 0 0 1384.45 -2748.6 0c-204.9,0 -341.5,31.38 -407.95,94.14 -66.46,62.76 -99.68,188.29 -99.68,378.42l0 269.5 3256.23 0 0 1384.45 -3256.23 0 0 319.35c0,195.67 33.22,324.89 97.83,385.8 64.61,60.92 201.21,92.3 409.8,92.3l2748.6 0 0 1384.45 -2813.21 0c-670.07,0 -1151.86,-143.98 -1445.36,-430.1 -291.66,-287.97 -437.49,-760.53 -437.49,-1421.37l0 -1995.46c0,-653.46 145.83,-1126.02 437.49,-1413.98 293.5,-287.97 775.29,-431.95 1445.36,-431.95zm9491.8 -431.95l0 4563.15 2567.69 0c348.89,0 594.4,-62.76 738.38,-190.13 143.98,-125.53 215.97,-337.81 215.97,-636.85 0,-300.89 -70.14,-509.48 -212.28,-631.31 -142.14,-119.99 -389.49,-180.9 -742.07,-180.9l-1792.4 0 0 -1439.83 1737.03 0c343.34,0 583.31,-55.38 718.06,-164.29 134.76,-110.75 203.06,-300.89 203.06,-575.93 0,-273.2 -68.3,-465.18 -203.06,-575.93 -134.75,-112.6 -374.72,-167.98 -718.06,-167.98l-2512.32 0zm-1639.19 -1561.66l4363.79 0c764.22,0 1343.84,138.44 1737.02,417.18 393.19,278.73 588.86,686.69 588.86,1225.7l0 836.21c0,363.65 -136.6,657.15 -409.8,878.66 -271.35,221.51 -638.69,335.96 -1096.49,343.35 507.64,25.84 898.97,160.59 1172.17,407.95 275.05,247.35 411.65,587.01 411.65,1020.8l0 908.2c0,537.17 -197.52,945.12 -594.4,1227.55 -395.03,280.58 -972.8,420.87 -1733.33,420.87l-4439.47 0 0 -7686.47zm10778.42 3400.21l-1650.27 0 0 2879.66 1650.27 0c227.05,0 402.41,-62.76 524.24,-188.29 123.68,-127.37 184.59,-302.73 184.59,-529.78l0 -1437.98c0,-230.75 -60.91,-407.96 -184.59,-535.33 -121.83,-125.52 -297.19,-188.28 -524.24,-188.28zm221.51 -1406.6c609.16,0 1081.72,169.82 1419.52,507.63 337.81,339.65 507.63,814.06 507.63,1423.21l0 1836.71c0,609.16 -169.82,1081.72 -507.63,1419.52 -337.8,337.81 -810.36,505.79 -1419.52,505.79l-3300.53 0 0 -5692.86 3300.53 0zm8576.21 -431.95l0 4563.15 2567.69 0c348.89,0 594.4,-62.76 738.38,-190.13 143.98,-125.53 215.97,-337.81 215.97,-636.85 0,-300.89 -70.14,-509.48 -212.28,-631.31 -142.14,-119.99 -389.49,-180.9 -742.07,-180.9l-1792.4 0 0 -1439.83 1737.03 0c343.34,0 583.31,-55.38 718.06,-164.29 134.76,-110.75 203.06,-300.89 203.06,-575.93 0,-273.2 -68.3,-465.18 -203.06,-575.93 -134.75,-112.6 -374.72,-167.98 -718.06,-167.98l-2512.32 0zm-1639.19 -1561.66l4363.79 0c764.22,0 1343.84,138.44 1737.02,417.18 393.19,278.73 588.86,686.69 588.86,1225.7l0 836.21c0,363.65 -136.6,657.15 -409.8,878.66 -271.35,221.51 -638.69,335.96 -1096.49,343.35 507.64,25.84 898.97,160.59 1172.17,407.95 275.05,247.35 411.65,587.01 411.65,1020.8l0 908.2c0,537.17 -197.52,945.12 -594.4,1227.55 -395.03,280.58 -972.8,420.87 -1733.33,420.87l-4439.47 0 0 -7686.47zm7389.28 0l6302.02 0 0 1605.96 -2325.88 0 0 6080.51 -1639.19 0 0 -6080.51 -2336.95 0 0 -1605.96z"/>
  <path class="fil0" d="M-170364.32 44144.41l4943.45 0c829.68,0 1480.41,233.84 1952.17,699.51 469.75,467.72 705.64,1116.4 705.64,1946.08l0 3164.13c0,825.62 -235.89,1476.34 -705.64,1948.12 -471.76,473.81 -1122.49,709.69 -1952.17,709.69l-4943.45 0 0 -8467.53zm1805.75 1769.15l0 4917.02 2964.86 0c337.56,0 593.79,-85.4 766.63,-256.22 172.85,-170.81 258.26,-422.96 258.26,-756.46l0 -2879.47c0,-337.55 -87.44,-593.75 -262.32,-766.62 -174.88,-172.84 -429.07,-258.25 -762.57,-258.25l-2964.86 0z"/>
  <path class="fil0" d="M-172918.69 45535.33l2342.59 7076.61 -1913.52 0 -2120.96 -6560.1c-32.53,-101.68 -75.23,-176.91 -128.11,-225.72 -52.87,-46.77 -122.01,-71.17 -205.39,-71.17 -79.31,0 -144.37,22.36 -193.18,69.14 -50.84,44.73 -91.52,119.98 -122.01,223.68l-2122.98 6564.17 -1917.6 0 2328.37 -7076.61c183.02,-544.99 435.18,-941.52 754.43,-1189.6 319.25,-248.09 744.26,-372.13 1272.97,-372.13 528.72,0 959.82,130.15 1295.35,390.43 335.52,260.29 579.54,650.73 730.04,1171.3z"/>
  <path class="fil0" d="M-184520.27 44144.41l4955.67 0 0 1769.15 -4819.43 0c-368.07,0 -624.29,71.17 -764.6,211.48 -140.31,140.31 -211.48,400.63 -211.48,776.79l0 536.86 5795.51 0 0 1781.35 -5795.51 0 0 632.41c0,374.17 70.16,629.38 209.46,768.69 139.29,139.28 394.5,209.44 766.62,209.44l4819.43 0 0 1781.36 -4955.67 0c-923.81,0 -1535.8,-302.49 -1939.95,-709.69 -405.16,-408.19 -705.64,-990.34 -705.64,-1948.12l0 -3164.13c0,-907.11 251.39,-1490.39 655.02,-1894.02 403.62,-403.64 1032.81,-751.57 1990.57,-751.57z"/>
  <circle class="fil1" cx="-174937.98" cy="51376.37" r="1235.57"/>
  <path class="fil2" d="M-195184.29 44144.44l4672.96 0c882.55,0 1533.3,152.52 1954.22,455.53 420.92,304.99 632.39,772.72 632.39,1409.18l0 675.14c0,488.06 -91.48,878.49 -274.49,1171.28 -183.02,290.81 -461.63,494.16 -839.86,610.09 233.89,91.48 429.1,248.07 583.6,467.68 154.56,219.6 266.42,494.15 333.51,823.59l612.12 2855.01 -1905.43 0 -416.85 -2293.77c-50.83,-313.17 -156.59,-565.31 -319.28,-754.42 -160.65,-189.17 -345.7,-282.68 -555.14,-282.68l-1817.96 0 0 -1695.93 1935.92 0c274.5,0 486.03,-52.86 634.43,-158.62 148.46,-105.76 223.72,-256.2 223.72,-449.38l0 -455.53c0,-193.18 -75.26,-343.67 -223.72,-449.38 -148.4,-105.77 -359.93,-158.62 -634.43,-158.62l-2789.96 0 0 6698.33 -1805.75 0 0 -8467.5z"/>
  <path class="fil0" d="M33931.13 21483.6l4943.45 0c829.68,0 1480.41,233.84 1952.17,699.51 469.75,467.72 705.64,1116.4 705.64,1946.08l0 3164.13c0,825.62 -235.89,1476.34 -705.64,1948.12 -471.76,473.81 -1122.49,709.69 -1952.17,709.69l-4943.45 0 0 -8467.53zm1805.75 1769.15l0 4917.02 2964.86 0c337.56,0 593.79,-85.4 766.63,-256.22 172.85,-170.81 258.26,-422.96 258.26,-756.46l0 -2879.47c0,-337.55 -87.44,-593.75 -262.32,-766.62 -174.88,-172.84 -429.07,-258.25 -762.57,-258.25l-2964.86 0z"/>
  <path class="fil0" d="M31376.76 22874.52l2342.59 7076.61 -1913.52 0 -2120.96 -6560.1c-32.53,-101.68 -75.23,-176.91 -128.11,-225.72 -52.87,-46.77 -122.01,-71.17 -205.39,-71.17 -79.31,0 -144.37,22.36 -193.18,69.14 -50.84,44.73 -91.52,119.98 -122.01,223.68l-2122.98 6564.17 -1917.6 0 2328.37 -7076.61c183.02,-544.99 435.18,-941.52 754.43,-1189.6 319.25,-248.09 744.26,-372.13 1272.97,-372.13 528.72,0 959.82,130.15 1295.35,390.43 335.52,260.29 579.54,650.73 730.04,1171.3z"/>
  <path class="fil0" d="M19775.18 21483.6l4955.67 0 0 1769.15 -4819.43 0c-368.07,0 -624.29,71.17 -764.6,211.48 -140.31,140.31 -211.48,400.63 -211.48,776.79l0 536.86 5795.51 0 0 1781.35 -5795.51 0 0 632.41c0,374.17 70.16,629.38 209.46,768.69 139.29,139.28 394.5,209.44 766.62,209.44l4819.43 0 0 1781.36 -4955.67 0c-923.81,0 -1535.8,-302.49 -1939.95,-709.69 -405.16,-408.19 -705.64,-990.34 -705.64,-1948.12l0 -3164.13c0,-907.11 251.39,-1490.39 655.02,-1894.02 403.62,-403.64 1032.81,-751.57 1990.57,-751.57z"/>
  <circle class="fil1" cx="29357.47" cy="28715.56" r="1235.57"/>
  <path class="fil2" d="M9111.16 21483.63l4672.96 0c882.55,0 1533.3,152.52 1954.22,455.53 420.92,304.99 632.39,772.72 632.39,1409.18l0 675.14c0,488.06 -91.48,878.49 -274.49,1171.28 -183.02,290.81 -461.63,494.16 -839.86,610.09 233.89,91.48 429.1,248.07 583.6,467.68 154.56,219.6 266.42,494.15 333.51,823.59l612.12 2855.01 -1905.43 0 -416.85 -2293.77c-50.83,-313.17 -156.59,-565.31 -319.28,-754.42 -160.65,-189.17 -345.7,-282.68 -555.14,-282.68l-1817.96 0 0 -1695.93 1935.92 0c274.5,0 486.03,-52.86 634.43,-158.62 148.46,-105.76 223.72,-256.2 223.72,-449.38l0 -455.53c0,-193.18 -75.26,-343.67 -223.72,-449.38 -148.4,-105.77 -359.93,-158.62 -634.43,-158.62l-2789.96 0 0 6698.33 -1805.75 0 0 -8467.5z"/>
 </g>
</svg>
